<?xml version="1.0" encoding="utf-8"?>
<svg width="16px" height="21px" viewBox="0 0 16 21" version="1.1" xmlns:xlink="http://www.w3.org/1999/xlink" xmlns="http://www.w3.org/2000/svg">
  <desc>Created with Lunacy</desc>
  <path d="M14 7L13 7L13 5C13 2.2 10.8 0 8 0C5.2 0 3 2.2 3 5L3 7L2 7C0.9 7 0 7.9 0 9L0 19C0 20.1 0.9 21 2 21L14 21C15.1 21 16 20.1 16 19L16 9C16 7.9 15.1 7 14 7L14 7ZM8 16C6.9 16 6 15.1 6 14C6 12.9 6.9 12 8 12C9.1 12 10 12.9 10 14C10 15.1 9.1 16 8 16L8 16ZM11.1 7L4.9 7L4.9 5C4.9 3.3 6.3 1.9 8 1.9C9.7 1.9 11.1 3.3 11.1 5L11.1 7L11.1 7Z" id="Shape-Copy" fill="#FFFFFF" stroke="none" />
</svg>
