<?xml version="1.0" encoding="UTF-8" standalone="no"?>
<!DOCTYPE svg PUBLIC "-//W3C//DTD SVG 1.1//EN" "http://www.w3.org/Graphics/SVG/1.1/DTD/svg11.dtd">
<svg version="1.1" xmlns="http://www.w3.org/2000/svg" xmlns:xlink="http://www.w3.org/1999/xlink"
     preserveAspectRatio="xMidYMid meet" viewBox="0 0 640 390" width="640" height="390">
  <symbol id="mastercard">
  <defs>
    <path
      d="M448 387C342.35 387 256 300.65 256 195C256 195 256 195 256 195C256 89.35 341.33 3 446.98 3C554.67 3 640 89.35 640 195C640 195 640 195 640 195C583.11 323 519.11 387 448 387Z"
      id="hr03W23IS"></path>
    <path
      d="M448 3C553.65 3 640 89.35 640 195C640 195 640 195 640 195C640 300.65 554.67 387 448 387C342.35 387 256 300.65 256 195"
      id="c2edfyx1ZE"></path>
    <path d="M448 3C553.65 3 640 89.35 640 195C640 195 640 195 640 195C640 300.65 554.67 387 448 387"
          id="axFlADhuN"></path>
    <path
      d="M0 195C0 300.65 85.33 387 192 387C241.78 387 286.48 367.7 321.02 337.22C321.02 337.22 321.02 337.22 321.02 337.22C321.02 337.22 321.02 337.22 321.02 337.22C328.13 331.13 334.22 324.02 340.32 316.9C336.36 316.9 304.66 316.9 300.7 316.9C295.62 310.81 290.54 303.7 286.48 297.6C293.28 297.6 347.73 297.6 354.54 297.6C358.6 291.51 362.67 284.4 365.71 277.29C356.67 277.29 284.34 277.29 275.3 277.29C272.25 271.19 269.21 264.08 267.17 256.97C277.74 256.97 362.26 256.97 372.83 256.97C378.92 237.67 382.98 217.35 382.98 196.02C382.98 181.79 380.95 168.59 378.92 155.38C367.14 155.38 272.86 155.38 261.08 155.38C262.1 148.27 264.13 142.17 266.16 135.06C276.72 135.06 361.24 135.06 371.81 135.06C369.78 127.95 366.73 120.84 363.68 114.75C354.74 114.75 283.23 114.75 274.29 114.75C277.33 107.63 281.4 101.54 285.46 94.43C292.27 94.43 346.72 94.43 353.52 94.43C349.46 87.32 344.38 80.21 338.29 74.11C334.53 74.11 304.46 74.11 300.7 74.11C306.79 67 312.89 60.9 320 54.81C286.48 23.32 240.76 5.03 190.98 5.03C190.98 3 190.98 3 189.97 3C85.33 4.02 0 89.35 0 195Z"
      id="d3DA8ySwaw"></path>
    <path
      d="M0 195C0 300.65 85.33 387 192 387C241.78 387 286.48 367.7 321.02 337.22C321.02 337.22 321.02 337.22 321.02 337.22C321.02 337.22 321.02 337.22 321.02 337.22C328.13 331.13 334.22 324.02 340.32 316.9C336.36 316.9 304.66 316.9 300.7 316.9C295.62 310.81 290.54 303.7 286.48 297.6C293.28 297.6 347.73 297.6 354.54 297.6C358.6 291.51 362.67 284.4 365.71 277.29C356.67 277.29 284.34 277.29 275.3 277.29C272.25 271.19 269.21 264.08 267.17 256.97C277.74 256.97 362.26 256.97 372.83 256.97C378.92 237.67 382.98 217.35 382.98 196.02C382.98 181.79 380.95 168.59 378.92 155.38C367.14 155.38 272.86 155.38 261.08 155.38C262.1 148.27 264.13 142.17 266.16 135.06C276.72 135.06 361.24 135.06 371.81 135.06C369.78 127.95 366.73 120.84 363.68 114.75C354.74 114.75 283.23 114.75 274.29 114.75C277.33 107.63 281.4 101.54 285.46 94.43C292.27 94.43 346.72 94.43 353.52 94.43C349.46 87.32 344.38 80.21 338.29 74.11C334.53 74.11 304.46 74.11 300.7 74.11C306.79 67 312.89 60.9 320 54.81C286.48 23.32 240.76 5.03 190.98 5.03C190.92 5.03 190.58 5.03 189.97 5.03"
      id="c1WTVWZNf8"></path>
    <path
      d="M192 387C241.78 387 286.48 367.7 321.02 337.22C321.02 337.22 321.02 337.22 321.02 337.22C321.02 337.22 321.02 337.22 321.02 337.22C328.13 331.13 334.22 324.02 340.32 316.9C336.36 316.9 304.66 316.9 300.7 316.9C295.62 310.81 290.54 303.7 286.48 297.6C293.28 297.6 347.73 297.6 354.54 297.6C358.6 291.51 362.67 284.4 365.71 277.29C356.67 277.29 284.34 277.29 275.3 277.29C272.25 271.19 269.21 264.08 267.17 256.97C277.74 256.97 362.26 256.97 372.83 256.97C378.92 237.67 382.98 217.35 382.98 196.02C382.98 181.79 380.95 168.59 378.92 155.38C367.14 155.38 272.86 155.38 261.08 155.38C262.1 148.27 264.13 142.17 266.16 135.06C276.72 135.06 361.24 135.06 371.81 135.06C369.78 127.95 366.73 120.84 363.68 114.75C354.74 114.75 283.23 114.75 274.29 114.75C277.33 107.63 281.4 101.54 285.46 94.43C292.27 94.43 346.72 94.43 353.52 94.43C349.46 87.32 344.38 80.21 338.29 74.11C334.53 74.11 304.46 74.11 300.7 74.11C306.79 67 312.89 60.9 320 54.81C286.48 23.32 240.76 5.03 190.98 5.03C190.92 5.03 190.58 5.03 189.97 5.03"
      id="e2O7GIUDHe"></path>
    <path
      d="M263.11 226.49C262.1 226.49 260.06 227.51 258.03 227.51C250.92 227.51 249.9 223.44 250.92 221.41C251.33 219.04 253.36 207.19 257.02 185.86L268.19 185.86L271.24 166.56L261.08 166.56L263.11 154.37C250.92 154.37 244.15 154.37 242.79 154.37C242.79 154.37 230.6 221.41 230.6 229.54C230.6 241.73 237.71 246.81 246.86 246.81C252.95 246.81 258.03 244.78 260.06 243.76C260.67 240.31 262.81 228.22 263.11 226.49Z"
      id="d4D7WfcnPq"></path>
    <path
      d="M303.75 165.54L305.39 165.57L306.99 165.66L308.52 165.81L310 166.01L311.43 166.26L312.8 166.57L314.12 166.93L315.39 167.34L316.61 167.79L317.78 168.29L318.9 168.83L319.97 169.41L320.99 170.03L321.96 170.69L322.89 171.38L323.77 172.11L324.61 172.87L325.4 173.66L326.15 174.47L326.86 175.32L327.52 176.19L328.15 177.08L328.73 177.99L329.27 178.92L329.78 179.88L330.24 180.84L330.67 181.82L331.07 182.81L331.42 183.81L331.75 184.83L332.03 185.84L332.29 186.86L332.51 187.89L332.7 188.92L332.86 189.94L332.98 190.97L333.08 191.99L333.15 193L333.19 194L333.21 195L333.2 195.4L333.18 195.82L333.16 196.27L333.12 196.75L333.08 197.24L333.02 197.76L332.96 198.3L332.89 198.85L332.81 199.42L332.73 200L332.64 200.59L332.55 201.19L332.45 201.8L332.35 202.41L332.24 203.02L332.13 203.63L332.02 204.24L331.91 204.85L331.8 205.45L331.68 206.05L331.57 206.63L331.45 207.21L331.34 207.77L331.23 208.31L331.12 208.84L331.02 209.35L330.92 209.83L330.82 210.3L330.72 210.73L330.63 211.14L330.55 211.52L330.48 211.87L330.41 212.19L330.34 212.47L330.29 212.71L330.24 212.91L330.21 213.07L330.18 213.19L330.16 213.26L330.16 213.29L288.51 213.29L288.5 213.32L288.48 213.4L288.45 213.55L288.42 213.74L288.38 213.98L288.34 214.27L288.3 214.6L288.26 214.98L288.24 215.38L288.22 215.83L288.22 216.3L288.23 216.8L288.27 217.32L288.32 217.87L288.4 218.43L288.51 219.01L288.65 219.6L288.82 220.2L289.02 220.8L289.27 221.41L289.56 222.02L289.89 222.63L290.27 223.23L290.7 223.82L291.19 224.4L291.73 224.96L292.33 225.51L292.99 226.03L293.71 226.53L294.51 227L295.37 227.44L296.31 227.85L297.32 228.22L298.42 228.55L299.59 228.84L300.85 229.08L302.2 229.28L303.64 229.42L305.17 229.51L306.79 229.54L307.56 229.53L308.32 229.5L309.09 229.46L309.86 229.4L310.63 229.32L311.39 229.23L312.15 229.13L312.91 229.01L313.67 228.88L314.41 228.75L315.15 228.6L315.88 228.44L316.6 228.28L317.31 228.11L318.01 227.93L318.69 227.75L319.36 227.57L320.01 227.38L320.65 227.19L321.27 227L321.87 226.81L322.45 226.62L323.01 226.43L323.54 226.25L324.06 226.07L324.54 225.89L325 225.72L325.44 225.56L325.85 225.4L326.22 225.25L326.57 225.12L326.88 224.99L327.17 224.87L327.41 224.77L327.63 224.68L327.8 224.6L327.94 224.54L328.04 224.5L328.11 224.47L328.13 224.46L324.06 243.76L324.05 243.77L324.02 243.78L323.96 243.81L323.88 243.85L323.77 243.89L323.64 243.95L323.49 244.01L323.31 244.08L323.1 244.16L322.87 244.24L322.62 244.33L322.34 244.42L322.03 244.52L321.69 244.62L321.33 244.73L320.94 244.83L320.53 244.95L320.08 245.06L319.61 245.17L319.11 245.29L318.58 245.4L318.03 245.51L317.44 245.63L316.82 245.74L316.18 245.85L315.5 245.95L314.79 246.05L314.06 246.15L313.29 246.24L312.49 246.33L311.66 246.42L310.8 246.49L309.91 246.56L308.98 246.62L308.02 246.68L307.03 246.72L306.01 246.76L304.95 246.79L303.86 246.8L302.73 246.81L301.51 246.8L300.27 246.75L299.03 246.68L297.78 246.58L296.54 246.45L295.29 246.28L294.04 246.08L292.79 245.84L291.55 245.57L290.32 245.25L289.09 244.9L287.88 244.51L286.68 244.07L285.5 243.59L284.34 243.06L283.19 242.49L282.07 241.86L280.97 241.19L279.9 240.47L278.86 239.7L277.84 238.87L276.86 237.99L275.92 237.05L275.01 236.06L274.14 235L273.31 233.89L272.52 232.72L271.78 231.48L271.09 230.18L270.44 228.81L269.85 227.38L269.31 225.87L268.83 224.3L268.4 222.66L268.04 220.95L267.73 219.16L267.49 217.3L267.32 215.36L267.21 213.35L267.17 211.25L267.2 209.36L267.29 207.47L267.43 205.6L267.62 203.75L267.87 201.91L268.17 200.1L268.53 198.31L268.93 196.55L269.38 194.82L269.89 193.11L270.44 191.44L271.04 189.8L271.69 188.19L272.38 186.62L273.12 185.09L273.9 183.61L274.73 182.16L275.6 180.76L276.51 179.41L277.46 178.11L278.45 176.86L279.48 175.66L280.55 174.52L281.66 173.44L282.8 172.41L283.98 171.45L285.19 170.55L286.44 169.72L287.72 168.95L289.03 168.25L290.38 167.63L291.75 167.08L293.16 166.6L294.59 166.2L296.05 165.88L297.54 165.64L299.05 165.48L300.59 165.42L302.16 165.43L303.75 165.54ZM297.87 182.78L295.95 183.87L294.34 185.26L293.01 186.83L291.94 188.52L291.1 190.23L290.46 191.88L290.02 193.37L289.73 194.61L289.57 195.52L289.52 196.02L311.87 196.02L311.91 195.52L311.97 194.61L312.02 193.37L311.99 191.88L311.83 190.23L311.49 188.52L310.92 186.83L310.07 185.26L308.87 183.87L307.29 182.78L305.26 182.05L302.73 181.79L300.12 182.05L297.87 182.78Z"
      id="a4Yzq5ZmS7"></path>
    <path
      d="M435.81 221.41C435.81 221.41 425.65 226.49 418.54 226.49C404.32 226.49 398.22 215.32 398.22 203.13C398.22 178.75 410.41 165.54 424.63 165.54C434.79 165.54 442.92 171.63 442.92 171.63C443.23 169.5 445.66 152.43 445.97 150.3C445.97 150.3 433.78 145.22 422.6 145.22C399.24 145.22 375.87 165.54 375.87 204.14C375.87 229.54 388.06 246.81 412.44 246.81C420.57 246.81 431.75 243.76 431.75 243.76C432.56 239.29 435.4 223.65 435.81 221.41Z"
      id="a1DcU8kRiS"></path>
    <path
      d="M149.48 163.52L150.13 163.53L150.81 163.56L151.54 163.6L152.3 163.65L153.08 163.72L153.9 163.81L154.74 163.92L155.6 164.05L156.48 164.2L157.38 164.39L158.28 164.6L159.2 164.84L160.12 165.12L161.04 165.43L161.97 165.77L162.89 166.16L163.8 166.59L164.7 167.06L165.59 167.58L166.46 168.15L167.31 168.76L168.14 169.43L168.94 170.15L169.72 170.93L170.46 171.77L171.17 172.67L171.83 173.63L172.46 174.65L173.04 175.74L173.58 176.9L174.06 178.13L174.49 179.44L174.86 180.81L175.17 182.27L175.42 183.8L175.6 185.42L175.71 187.12L175.75 188.9L167.62 244.78L149.33 244.78L150.35 236.65L150.26 236.67L150.16 236.72L150.03 236.8L149.89 236.91L149.72 237.04L149.54 237.21L149.33 237.39L149.11 237.6L148.86 237.83L148.59 238.08L148.3 238.34L147.98 238.63L147.64 238.92L147.29 239.23L146.9 239.54L146.5 239.87L146.07 240.2L145.61 240.54L145.14 240.88L144.63 241.22L144.11 241.56L143.56 241.91L142.98 242.24L142.38 242.58L141.75 242.9L141.09 243.22L140.41 243.52L139.7 243.82L138.97 244.1L138.21 244.37L137.42 244.61L136.6 244.84L135.75 245.05L134.88 245.24L133.97 245.4L133.04 245.54L132.08 245.65L131.09 245.73L130.07 245.78L129.02 245.79L128.47 245.79L127.91 245.76L127.34 245.72L126.75 245.66L126.14 245.58L125.53 245.49L124.91 245.37L124.28 245.22L123.64 245.06L123 244.87L122.36 244.66L121.71 244.42L121.07 244.16L120.42 243.86L119.78 243.54L119.15 243.19L118.52 242.81L117.9 242.4L117.3 241.95L116.7 241.48L116.11 240.96L115.55 240.42L114.99 239.83L114.46 239.21L113.95 238.55L113.45 237.85L112.98 237.12L112.54 236.34L112.12 235.51L111.73 234.65L111.37 233.74L111.04 232.79L110.74 231.79L110.48 230.75L110.25 229.65L110.06 228.51L109.91 227.32L109.8 226.08L109.74 224.79L109.71 223.44L109.75 221.72L109.86 220.06L110.03 218.46L110.27 216.91L110.58 215.43L110.95 214L111.37 212.62L111.86 211.3L112.4 210.04L113 208.83L113.65 207.67L114.35 206.56L115.1 205.5L115.89 204.49L116.73 203.53L117.61 202.62L118.54 201.76L119.5 200.94L120.49 200.17L121.52 199.44L122.59 198.76L123.68 198.12L124.8 197.52L125.95 196.97L127.13 196.45L128.32 195.97L129.54 195.54L130.77 195.14L132.02 194.77L133.29 194.44L134.56 194.15L135.85 193.89L137.15 193.67L138.45 193.48L139.76 193.32L141.07 193.19L142.37 193.09L143.68 193.02L144.99 192.98L146.29 192.97L155.43 192.97L155.43 192.97L155.44 192.96L155.44 192.95L155.46 192.94L155.47 192.92L155.49 192.89L155.51 192.86L155.53 192.83L155.56 192.79L155.59 192.75L155.62 192.7L155.65 192.64L155.68 192.58L155.71 192.51L155.75 192.43L155.79 192.35L155.82 192.26L155.86 192.17L155.9 192.06L155.94 191.95L155.97 191.83L156.01 191.71L156.05 191.57L156.09 191.43L156.12 191.28L156.16 191.12L156.19 190.95L156.23 190.78L156.26 190.59L156.29 190.4L156.31 190.19L156.34 189.98L156.36 189.75L156.38 189.52L156.4 189.27L156.42 189.02L156.43 188.75L156.44 188.48L156.44 188.19L156.44 187.89L156.43 187.44L156.4 187.01L156.34 186.6L156.27 186.21L156.17 185.83L156.05 185.48L155.91 185.13L155.75 184.81L155.58 184.5L155.38 184.21L155.17 183.93L154.94 183.66L154.69 183.42L154.42 183.18L154.14 182.96L153.84 182.75L153.53 182.56L153.2 182.38L152.86 182.21L152.51 182.05L152.14 181.9L151.76 181.77L151.36 181.64L150.96 181.53L150.54 181.42L150.11 181.33L149.68 181.24L149.23 181.16L148.77 181.09L148.3 181.03L147.83 180.98L147.34 180.93L146.85 180.89L146.35 180.86L145.85 180.83L145.34 180.81L144.82 180.8L144.3 180.79L143.77 180.78L143.24 180.78L142.26 180.79L141.29 180.81L140.34 180.84L139.4 180.89L138.49 180.95L137.59 181.02L136.71 181.11L135.84 181.2L135 181.3L134.17 181.41L133.37 181.53L132.59 181.66L131.82 181.79L131.08 181.92L130.36 182.06L129.67 182.21L128.99 182.36L128.34 182.51L127.71 182.66L127.11 182.81L126.53 182.96L125.98 183.11L125.45 183.26L124.95 183.41L124.48 183.56L124.03 183.7L123.61 183.83L123.22 183.96L122.86 184.09L122.52 184.21L122.22 184.32L121.95 184.42L121.7 184.51L121.49 184.59L121.31 184.67L121.16 184.73L121.04 184.78L120.96 184.81L120.91 184.83L120.89 184.84L123.94 167.57L124.3 167.51L124.67 167.43L125.04 167.35L125.42 167.26L125.8 167.16L126.19 167.06L126.58 166.95L126.98 166.84L127.39 166.72L127.8 166.59L128.23 166.47L128.67 166.34L129.11 166.2L129.57 166.07L130.04 165.93L130.53 165.79L131.03 165.65L131.54 165.51L132.07 165.37L132.62 165.23L133.19 165.1L133.77 164.96L134.37 164.83L135 164.7L135.64 164.58L136.3 164.46L136.99 164.34L137.7 164.23L138.43 164.13L139.19 164.03L139.98 163.94L140.79 163.85L141.63 163.78L142.49 163.71L143.39 163.65L144.31 163.6L145.26 163.56L146.25 163.53L147.27 163.51L148.32 163.51L148.88 163.51L149.48 163.52ZM142.12 208.68L139.6 209.23L137.45 209.96L135.62 210.84L134.11 211.85L132.88 212.96L131.9 214.15L131.16 215.4L130.63 216.67L130.28 217.94L130.09 219.19L130.03 220.4L130.07 221.13L130.18 221.92L130.38 222.74L130.67 223.58L131.05 224.41L131.53 225.22L132.12 225.98L132.81 226.67L133.63 227.29L134.56 227.8L135.63 228.19L136.82 228.44L138.16 228.52L140.8 228.25L143.09 227.48L145.08 226.29L146.76 224.77L148.18 222.99L149.34 221.03L150.28 218.99L151.02 216.92L151.57 214.93L151.96 213.08L152.21 211.46L152.34 210.15L152.38 209.22L152.36 209.22L152.31 209.22L152.21 209.21L152.06 209.19L151.87 209.16L151.63 209.12L151.34 209.06L150.99 208.99L150.58 208.89L150.12 208.76L149.58 208.61L148.99 208.42L148.32 208.21L145.01 208.33L142.12 208.68Z"
      id="b1aELiHxPh"></path>
    <path
      d="M225.52 219.38C225.52 193.98 201.14 199.06 201.14 188.9C201.14 183.83 205.21 181.79 212.32 181.79C215.37 181.79 226.54 182.81 226.54 182.81C226.84 180.98 229.28 166.35 229.59 164.52C229.59 164.52 222.48 162.49 210.29 162.49C195.05 162.49 179.81 168.59 179.81 188.9C179.81 212.27 205.21 210.24 205.21 219.38C205.21 225.48 198.1 226.49 193.02 226.49C183.87 226.49 174.73 223.44 174.73 223.44C174.43 225.27 171.99 239.9 171.68 241.73C172.7 243.76 177.78 245.79 195.05 245.79C200.13 245.79 225.52 246.81 225.52 219.38Z"
      id="c9mFqSQF"></path>
    <path
      d="M606.48 245.79L586.16 245.79L587.17 238.68L587.16 238.7L587.12 238.74L587.06 238.81L586.96 238.91L586.85 239.03L586.7 239.18L586.53 239.34L586.34 239.53L586.12 239.73L585.87 239.95L585.6 240.19L585.31 240.44L584.99 240.7L584.65 240.97L584.28 241.25L583.89 241.54L583.48 241.84L583.04 242.14L582.58 242.44L582.1 242.75L581.59 243.05L581.06 243.35L580.51 243.65L579.93 243.95L579.34 244.24L578.72 244.52L578.08 244.79L577.42 245.05L576.74 245.3L576.03 245.54L575.31 245.76L574.56 245.96L573.8 246.15L573.01 246.32L572.2 246.46L571.38 246.58L570.53 246.68L569.66 246.75L568.78 246.79L567.87 246.81L566.59 246.78L565.35 246.68L564.14 246.53L562.97 246.31L561.82 246.04L560.72 245.71L559.64 245.32L558.6 244.88L557.59 244.39L556.62 243.86L555.68 243.27L554.77 242.64L553.9 241.96L553.06 241.25L552.25 240.49L551.47 239.69L550.73 238.86L550.02 237.98L549.34 237.08L548.7 236.14L548.09 235.18L547.51 234.18L546.96 233.16L546.44 232.11L545.96 231.04L545.51 229.94L545.09 228.83L544.7 227.69L544.34 226.55L544.02 225.38L543.72 224.2L543.46 223.01L543.23 221.81L543.03 220.61L542.86 219.39L542.72 218.17L542.61 216.95L542.54 215.73L542.49 214.51L542.48 213.29L542.51 211.31L542.6 209.36L542.74 207.42L542.95 205.5L543.21 203.61L543.53 201.74L543.89 199.89L544.31 198.07L544.78 196.28L545.3 194.52L545.87 192.8L546.48 191.11L547.14 189.45L547.84 187.83L548.58 186.25L549.37 184.71L550.19 183.22L551.05 181.76L551.95 180.36L552.89 179L553.86 177.69L554.86 176.43L555.89 175.23L556.96 174.08L558.05 172.99L559.17 171.95L560.32 170.98L561.49 170.06L562.69 169.21L563.9 168.43L565.14 167.71L566.4 167.06L567.68 166.48L568.97 165.97L570.28 165.54L571.61 165.18L572.94 164.89L574.29 164.69L575.65 164.57L577.02 164.52L577.85 164.54L578.67 164.6L579.48 164.69L580.27 164.81L581.05 164.96L581.82 165.14L582.58 165.35L583.31 165.58L584.04 165.84L584.75 166.11L585.44 166.41L586.11 166.72L586.77 167.05L587.41 167.39L588.03 167.74L588.64 168.1L589.22 168.47L589.79 168.84L590.33 169.22L590.86 169.6L591.36 169.98L591.84 170.36L592.3 170.74L592.74 171.11L593.16 171.47L593.55 171.82L593.92 172.16L594.26 172.49L594.58 172.8L594.87 173.1L595.14 173.37L595.38 173.63L595.6 173.86L595.79 174.07L595.95 174.25L596.08 174.4L596.18 174.52L596.26 174.61L596.3 174.66L596.32 174.68L600.38 147.25L621.71 148.27L606.48 245.79ZM577.62 184.07L576.45 184.38L575.31 184.81L574.2 185.35L573.14 186.01L572.12 186.78L571.14 187.66L570.21 188.65L569.33 189.74L568.51 190.94L567.74 192.23L567.03 193.63L566.39 195.12L565.81 196.71L565.29 198.38L564.85 200.15L564.48 202L564.19 203.94L563.98 205.96L563.85 208.06L563.81 210.24L563.83 211.6L563.91 212.91L564.03 214.16L564.21 215.36L564.43 216.51L564.7 217.6L565.01 218.64L565.37 219.61L565.78 220.53L566.23 221.38L566.73 222.17L567.27 222.9L567.86 223.57L568.48 224.17L569.15 224.71L569.87 225.17L570.62 225.57L571.41 225.9L572.25 226.16L573.12 226.34L574.03 226.45L574.98 226.49L576.47 226.41L577.88 226.15L579.22 225.74L580.48 225.19L581.67 224.49L582.79 223.67L583.83 222.73L584.81 221.68L585.71 220.53L586.54 219.3L587.3 217.98L587.99 216.6L588.62 215.16L589.17 213.66L589.66 212.13L590.08 210.57L590.44 208.98L590.73 207.39L590.95 205.79L591.11 204.21L591.21 202.64L591.24 201.1L591.21 199.48L591.14 197.95L591.01 196.5L590.84 195.14L590.62 193.86L590.35 192.67L590.04 191.55L589.67 190.52L589.27 189.57L588.81 188.69L588.32 187.89L587.78 187.16L587.19 186.51L586.56 185.94L585.89 185.43L585.18 185L584.43 184.64L583.63 184.34L582.8 184.11L581.93 183.95L581.01 183.86L580.06 183.83L578.83 183.89L577.62 184.07Z"
      id="faP5qkSgW"></path>
    <path
      d="M49.78 171.63L51.81 244.78L66.03 244.78L92.44 171.63L81.27 244.78L102.6 244.78L118.86 147.25L85.33 147.25L65.02 207.19L64 147.25L34.54 147.25L18.29 244.78L37.59 244.78L49.78 171.63Z"
      id="c3cufeCsjT"></path>
    <path
      d="M373.84 188.9C375.87 175.7 378.92 170.62 380.95 165.54C380.95 165.54 379.94 165.54 376.89 165.54C367.75 165.54 360.63 177.73 360.63 177.73C360.77 176.99 361.45 173.26 362.67 166.56L343.37 166.56L330.16 245.79L352.51 245.79L352.51 244.78C357.25 204.14 364.36 185.52 373.84 188.9Z"
      id="d9HkjdS0S"></path>
    <path
      d="M479.64 163.52L480.3 163.53L481 163.56L481.74 163.6L482.51 163.65L483.32 163.72L484.16 163.81L485.02 163.92L485.9 164.05L486.81 164.2L487.73 164.39L488.66 164.6L489.6 164.84L490.55 165.12L491.5 165.43L492.44 165.77L493.38 166.16L494.32 166.59L495.24 167.06L496.14 167.58L497.03 168.15L497.9 168.76L498.74 169.43L499.55 170.15L500.33 170.93L501.07 171.77L501.77 172.67L502.43 173.63L503.05 174.65L503.61 175.74L504.12 176.9L504.58 178.13L504.98 179.44L505.31 180.81L505.58 182.27L505.77 183.8L505.89 185.42L505.94 187.12L505.9 188.9L497.78 244.78L479.49 244.78L480.51 236.65L480.42 236.67L480.32 236.72L480.19 236.8L480.05 236.91L479.88 237.04L479.7 237.21L479.49 237.39L479.26 237.6L479.02 237.83L478.75 238.08L478.45 238.34L478.14 238.63L477.8 238.92L477.44 239.23L477.06 239.54L476.66 239.87L476.23 240.2L475.77 240.54L475.3 240.88L474.79 241.22L474.27 241.56L473.72 241.91L473.14 242.24L472.54 242.58L471.91 242.9L471.25 243.22L470.57 243.52L469.86 243.82L469.13 244.1L468.37 244.37L467.58 244.61L466.76 244.84L465.91 245.05L465.04 245.24L464.13 245.4L463.2 245.54L462.24 245.65L461.25 245.73L460.23 245.78L459.17 245.79L458.63 245.79L458.07 245.76L457.5 245.72L456.91 245.66L456.3 245.58L455.69 245.49L455.07 245.37L454.44 245.22L453.8 245.06L453.16 244.87L452.51 244.66L451.87 244.42L451.22 244.16L450.58 243.86L449.94 243.54L449.31 243.19L448.68 242.81L448.06 242.4L447.45 241.95L446.86 241.48L446.27 240.96L445.71 240.42L445.15 239.83L444.62 239.21L444.11 238.55L443.61 237.85L443.14 237.12L442.7 236.34L442.28 235.51L441.89 234.65L441.53 233.74L441.2 232.79L440.9 231.79L440.64 230.75L440.41 229.65L440.22 228.51L440.07 227.32L439.96 226.08L439.9 224.79L439.87 223.44L439.91 221.72L440.02 220.06L440.19 218.46L440.43 216.91L440.74 215.43L441.1 214L441.53 212.62L442.02 211.3L442.56 210.04L443.16 208.83L443.81 207.67L444.51 206.56L445.26 205.5L446.05 204.49L446.89 203.53L447.77 202.62L448.69 201.76L449.65 200.94L450.65 200.17L451.68 199.44L452.75 198.76L453.84 198.12L454.96 197.52L456.11 196.97L457.28 196.45L458.48 195.97L459.69 195.54L460.93 195.14L462.18 194.77L463.44 194.44L464.72 194.15L466.01 193.89L467.31 193.67L468.61 193.48L469.91 193.32L471.22 193.19L472.53 193.09L473.84 193.02L475.15 192.98L476.44 192.97L485.59 192.97L485.59 192.97L485.59 192.96L485.6 192.95L485.62 192.94L485.63 192.92L485.65 192.89L485.67 192.86L485.69 192.83L485.72 192.79L485.75 192.75L485.78 192.7L485.81 192.64L485.84 192.58L485.87 192.51L485.91 192.43L485.94 192.35L485.98 192.26L486.02 192.17L486.06 192.06L486.1 191.95L486.13 191.83L486.17 191.71L486.21 191.57L486.25 191.43L486.28 191.28L486.32 191.12L486.35 190.95L486.38 190.78L486.41 190.59L486.44 190.4L486.47 190.19L486.5 189.98L486.52 189.75L486.54 189.52L486.56 189.27L486.57 189.02L486.59 188.75L486.6 188.48L486.6 188.19L486.6 187.89L486.59 187.44L486.56 187.01L486.5 186.6L486.43 186.21L486.33 185.83L486.21 185.48L486.07 185.13L485.91 184.81L485.74 184.5L485.54 184.21L485.33 183.93L485.09 183.66L484.85 183.42L484.58 183.18L484.3 182.96L484 182.75L483.69 182.56L483.36 182.38L483.02 182.21L482.67 182.05L482.3 181.9L481.92 181.77L481.52 181.64L481.12 181.53L480.7 181.42L480.27 181.33L479.83 181.24L479.39 181.16L478.93 181.09L478.46 181.03L477.98 180.98L477.5 180.93L477.01 180.89L476.51 180.86L476.01 180.83L475.49 180.81L474.98 180.8L474.46 180.79L473.93 180.78L473.4 180.78L472.41 180.79L471.45 180.81L470.5 180.84L469.56 180.89L468.64 180.95L467.75 181.02L466.86 181.11L466 181.2L465.16 181.3L464.33 181.41L463.53 181.53L462.75 181.66L461.98 181.79L461.24 181.92L460.52 182.06L459.82 182.21L459.15 182.36L458.5 182.51L457.87 182.66L457.27 182.81L456.69 182.96L456.14 183.11L455.61 183.26L455.11 183.41L454.64 183.56L454.19 183.7L453.77 183.83L453.38 183.96L453.02 184.09L452.68 184.21L452.38 184.32L452.1 184.42L451.86 184.51L451.65 184.59L451.47 184.67L451.32 184.73L451.2 184.78L451.12 184.81L451.06 184.83L451.05 184.84L454.1 167.57L454.46 167.51L454.83 167.43L455.2 167.35L455.58 167.26L455.96 167.16L456.35 167.06L456.74 166.95L457.14 166.84L457.55 166.72L457.96 166.59L458.39 166.47L458.82 166.34L459.27 166.2L459.73 166.07L460.2 165.93L460.69 165.79L461.19 165.65L461.7 165.51L462.23 165.37L462.78 165.23L463.35 165.1L463.93 164.96L464.53 164.83L465.15 164.7L465.8 164.58L466.46 164.46L467.15 164.34L467.86 164.23L468.59 164.13L469.35 164.03L470.14 163.94L470.95 163.85L471.79 163.78L472.65 163.71L473.55 163.65L474.47 163.6L475.42 163.56L476.41 163.53L477.43 163.51L478.48 163.51L479.04 163.51L479.64 163.52ZM473.29 208.68L470.78 209.23L468.62 209.96L466.8 210.84L465.28 211.85L464.05 212.96L463.08 214.15L462.34 215.4L461.81 216.67L461.46 217.94L461.26 219.19L461.21 220.4L461.24 221.13L461.36 221.92L461.56 222.74L461.84 223.58L462.22 224.41L462.7 225.22L463.29 225.98L463.99 226.67L464.8 227.29L465.74 227.8L466.8 228.19L468 228.44L469.33 228.52L471.97 228.25L474.27 227.48L476.25 226.29L477.94 224.77L479.35 222.99L480.52 221.03L481.46 218.99L482.19 216.92L482.74 214.93L483.13 213.08L483.38 211.46L483.52 210.15L483.56 209.22L483.34 209.22L483.14 209.22L482.96 209.21L482.79 209.19L482.6 209.16L482.4 209.12L482.16 209.06L481.89 208.99L481.56 208.89L481.16 208.76L480.7 208.61L480.14 208.42L479.49 208.21L476.19 208.33L473.29 208.68Z"
      id="bBfJzIHTP"></path>
    <path
      d="M544.51 188.9C546.54 175.7 549.59 170.62 551.62 165.54C551.62 165.54 550.6 165.54 547.56 165.54C538.41 165.54 531.3 177.73 531.3 177.73C531.44 176.99 532.11 173.26 533.33 166.56L514.03 166.56L500.83 245.79L523.17 245.79L523.17 244.78C527.92 204.14 535.03 185.52 544.51 188.9Z"
      id="a7MYBEs7T"></path>
    <path
      d="M228.57 229.54C228.57 241.73 235.68 246.81 244.83 246.81C251.94 246.81 258.03 244.78 260.06 243.76C260.37 242.03 262.81 228.22 263.11 226.49C262.1 226.49 260.06 227.51 258.03 227.51C250.92 227.51 249.9 223.44 250.92 221.41C251.33 219.04 253.36 207.19 257.02 185.86L268.19 185.86L271.24 166.56L261.08 166.56L263.11 154.37"
      id="bjJ0nj2ze"></path>
    <path
      d="M303.75 165.54L305.39 165.57L306.99 165.66L308.52 165.81L310 166.01L311.43 166.26L312.8 166.57L314.12 166.93L315.39 167.34L316.61 167.79L317.78 168.29L318.9 168.83L319.97 169.41L320.99 170.03L321.96 170.69L322.89 171.38L323.77 172.11L324.61 172.87L325.4 173.66L326.15 174.47L326.86 175.32L327.52 176.19L328.15 177.08L328.73 177.99L329.27 178.92L329.78 179.88L330.24 180.84L330.67 181.82L331.07 182.81L331.42 183.81L331.75 184.83L332.03 185.84L332.29 186.86L332.51 187.89L332.7 188.92L332.86 189.94L332.98 190.97L333.08 191.99L333.15 193L333.19 194L333.21 195L333.2 195.4L333.18 195.82L333.16 196.27L333.12 196.75L333.08 197.24L333.02 197.76L332.96 198.3L332.89 198.85L332.81 199.42L332.73 200L332.64 200.59L332.55 201.19L332.45 201.8L332.35 202.41L332.24 203.02L332.13 203.63L332.02 204.24L331.91 204.85L331.8 205.45L331.68 206.05L331.57 206.63L331.45 207.21L331.34 207.77L331.23 208.31L331.12 208.84L331.02 209.35L330.92 209.83L330.82 210.3L330.72 210.73L330.63 211.14L330.55 211.52L330.48 211.87L330.41 212.19L330.34 212.47L330.29 212.71L330.24 212.91L330.21 213.07L330.18 213.19L330.16 213.26L330.16 213.29L288.51 213.29L288.5 213.32L288.48 213.4L288.45 213.55L288.42 213.74L288.38 213.98L288.34 214.27L288.3 214.6L288.26 214.98L288.24 215.38L288.22 215.83L288.22 216.3L288.23 216.8L288.27 217.32L288.32 217.87L288.4 218.43L288.51 219.01L288.65 219.6L288.82 220.2L289.02 220.8L289.27 221.41L289.56 222.02L289.89 222.63L290.27 223.23L290.7 223.82L291.19 224.4L291.73 224.96L292.33 225.51L292.99 226.03L293.71 226.53L294.51 227L295.37 227.44L296.31 227.85L297.32 228.22L298.42 228.55L299.59 228.84L300.85 229.08L302.2 229.28L303.64 229.42L305.17 229.51L306.79 229.54L307.56 229.53L308.32 229.5L309.09 229.46L309.86 229.4L310.63 229.32L311.39 229.23L312.15 229.13L312.91 229.01L313.67 228.88L314.41 228.75L315.15 228.6L315.88 228.44L316.6 228.28L317.31 228.11L318.01 227.93L318.69 227.75L319.36 227.57L320.01 227.38L320.65 227.19L321.27 227L321.87 226.81L322.45 226.62L323.01 226.43L323.54 226.25L324.06 226.07L324.54 225.89L325 225.72L325.44 225.56L325.85 225.4L326.22 225.25L326.57 225.12L326.88 224.99L327.17 224.87L327.41 224.77L327.63 224.68L327.8 224.6L327.94 224.54L328.04 224.5L328.11 224.47L328.13 224.46L324.06 243.76L324.05 243.77L324.02 243.78L323.96 243.81L323.88 243.85L323.77 243.89L323.64 243.95L323.49 244.01L323.31 244.08L323.1 244.16L322.87 244.24L322.62 244.33L322.34 244.42L322.03 244.52L321.69 244.62L321.33 244.73L320.94 244.83L320.53 244.95L320.08 245.06L319.61 245.17L319.11 245.29L318.58 245.4L318.03 245.51L317.44 245.63L316.82 245.74L316.18 245.85L315.5 245.95L314.79 246.05L314.06 246.15L313.29 246.24L312.49 246.33L311.66 246.42L310.8 246.49L309.91 246.56L308.98 246.62L308.02 246.68L307.03 246.72L306.01 246.76L304.95 246.79L303.86 246.8L302.73 246.81L301.52 246.8L300.35 246.75L299.19 246.68L298.07 246.58L296.97 246.45L295.9 246.28L294.86 246.08L293.85 245.84L292.86 245.57L291.9 245.25L290.98 244.9L290.08 244.51L289.21 244.07L288.36 243.59L287.55 243.06L286.77 242.49L286.02 241.86L285.29 241.19L284.6 240.47L283.94 239.7L283.3 238.87L282.7 237.99L282.13 237.05L281.59 236.06L281.08 235L280.61 233.89L280.16 232.72L279.75 231.48L279.37 230.18L279.02 228.81L278.7 227.38L278.41 225.87L278.16 224.3L277.94 222.66L277.76 220.95L277.61 219.16L277.49 217.3L277.4 215.36L277.35 213.35L277.33 211.25L277.34 209.36L277.37 207.47L277.42 205.6L277.5 203.75L277.59 201.91L277.71 200.1L277.86 198.31L278.03 196.55L278.23 194.82L278.46 193.11L278.72 191.44L279.01 189.8L279.33 188.19L279.68 186.62L280.07 185.09L280.49 183.61L280.94 182.16L281.44 180.76L281.97 179.41L282.54 178.11L283.15 176.86L283.8 175.66L284.5 174.52L285.23 173.44L286.01 172.41L286.84 171.45L287.71 170.55L288.63 169.72L289.6 168.95L290.62 168.25L291.69 167.63L292.81 167.08L293.98 166.6L295.21 166.2L296.49 165.88L297.82 165.64L299.22 165.48L300.67 165.42L302.18 165.43L303.75 165.54ZM298.2 182.64L296.37 183.59L294.8 184.8L293.49 186.21L292.4 187.74L291.52 189.32L290.83 190.88L290.31 192.36L289.94 193.68L289.69 194.77L289.56 195.58L289.52 196.02L315.94 196.02L315.9 195.58L315.77 194.77L315.52 193.68L315.15 192.36L314.63 190.88L313.94 189.32L313.06 187.74L311.97 186.21L310.66 184.8L309.09 183.59L307.26 182.64L305.15 182.02L302.73 181.79L300.31 182.02L298.2 182.64Z"
      id="a1f69EnT4C"></path>
    <path
      d="M435.81 221.41C435.81 221.41 425.65 226.49 418.54 226.49C404.32 226.49 398.22 215.32 398.22 203.13C398.22 178.75 410.41 165.54 424.63 165.54C434.79 165.54 442.92 171.63 442.92 171.63C443.23 169.5 445.66 152.43 445.97 150.3C445.97 150.3 433.78 145.22 422.6 145.22C399.24 145.22 386.03 165.54 386.03 204.14C386.03 229.54 388.06 246.81 412.44 246.81C420.57 246.81 431.75 243.76 431.75 243.76C432.56 239.29 435.4 223.65 435.81 221.41Z"
      id="eaIBllUNp"></path>
    <path
      d="M148.61 165.55L149.32 165.57L150.07 165.59L150.86 165.63L151.67 165.68L152.51 165.75L153.38 165.83L154.27 165.94L155.17 166.06L156.1 166.21L157.03 166.39L157.97 166.59L158.92 166.83L159.87 167.09L160.82 167.39L161.77 167.73L162.72 168.1L163.65 168.51L164.57 168.97L165.48 169.47L166.37 170.01L167.23 170.6L168.07 171.24L168.89 171.94L169.67 172.69L170.42 173.49L171.14 174.35L171.81 175.27L172.44 176.25L173.03 177.3L173.57 178.41L174.05 179.59L174.48 180.84L174.86 182.16L175.17 183.56L175.42 185.03L175.6 186.58L175.71 188.21L175.75 189.92L167.62 245.79L149.33 245.79L150.35 237.67L150.26 237.68L150.16 237.73L150.03 237.81L149.89 237.92L149.72 238.06L149.54 238.22L149.33 238.41L149.11 238.62L148.86 238.85L148.59 239.1L148.3 239.36L147.98 239.64L147.64 239.94L147.29 240.24L146.9 240.56L146.5 240.88L146.07 241.22L145.61 241.55L145.14 241.9L144.63 242.24L144.11 242.58L143.56 242.92L142.98 243.26L142.38 243.59L141.75 243.92L141.09 244.23L140.41 244.54L139.7 244.83L138.97 245.12L138.21 245.38L137.42 245.63L136.6 245.86L135.75 246.07L134.88 246.25L133.97 246.42L133.04 246.55L132.08 246.66L131.09 246.74L130.07 246.79L129.02 246.81L128.47 246.8L127.91 246.78L127.34 246.74L126.75 246.68L126.14 246.6L125.53 246.5L124.91 246.38L124.28 246.24L123.64 246.08L123 245.89L122.36 245.68L121.71 245.44L121.07 245.17L120.42 244.88L119.78 244.56L119.15 244.21L118.52 243.83L117.9 243.42L117.3 242.97L116.7 242.49L116.11 241.98L115.55 241.43L114.99 240.85L114.46 240.23L113.95 239.57L113.45 238.87L112.98 238.13L112.54 237.35L112.12 236.53L111.73 235.67L111.37 234.76L111.04 233.81L110.74 232.81L110.48 231.76L110.25 230.67L110.06 229.53L109.91 228.34L109.8 227.1L109.74 225.81L109.71 224.46L109.75 222.74L109.86 221.08L110.03 219.47L110.27 217.93L110.58 216.44L110.95 215.01L111.37 213.64L111.86 212.32L112.4 211.05L113 209.84L113.65 208.68L114.35 207.57L115.1 206.52L115.89 205.51L116.73 204.55L117.61 203.64L118.54 202.78L119.5 201.96L120.49 201.19L121.52 200.46L122.59 199.78L123.68 199.14L124.8 198.54L125.95 197.98L127.13 197.47L128.32 196.99L129.54 196.55L130.77 196.15L132.02 195.79L133.29 195.46L134.56 195.17L135.85 194.91L137.15 194.69L138.45 194.49L139.76 194.34L141.07 194.21L142.37 194.11L143.68 194.04L144.99 194L146.29 193.98L155.43 193.98L155.43 193.98L155.44 193.98L155.44 193.97L155.46 193.95L155.47 193.93L155.49 193.91L155.51 193.88L155.53 193.85L155.56 193.81L155.59 193.76L155.62 193.71L155.65 193.65L155.68 193.59L155.71 193.52L155.75 193.45L155.79 193.37L155.82 193.28L155.86 193.18L155.9 193.08L155.94 192.97L155.97 192.85L156.01 192.72L156.05 192.59L156.09 192.45L156.12 192.3L156.16 192.14L156.19 191.97L156.23 191.79L156.26 191.61L156.29 191.41L156.31 191.21L156.34 190.99L156.36 190.77L156.38 190.53L156.4 190.29L156.42 190.03L156.43 189.77L156.44 189.49L156.44 189.2L156.44 188.9L156.43 188.46L156.4 188.03L156.34 187.62L156.27 187.22L156.17 186.85L156.05 186.49L155.91 186.15L155.75 185.82L155.58 185.52L155.38 185.22L155.17 184.94L154.94 184.68L154.69 184.43L154.42 184.2L154.14 183.98L153.84 183.77L153.53 183.57L153.2 183.39L152.86 183.22L152.51 183.06L152.14 182.92L151.76 182.78L151.36 182.66L150.96 182.54L150.54 182.44L150.11 182.34L149.68 182.26L149.23 182.18L148.77 182.11L148.3 182.05L147.83 181.99L147.34 181.95L146.85 181.91L146.35 181.88L145.85 181.85L145.34 181.83L144.82 181.81L144.3 181.8L143.77 181.8L143.24 181.79L142.26 181.8L141.29 181.82L140.34 181.86L139.4 181.91L138.49 181.97L137.59 182.04L136.71 182.12L135.84 182.22L135 182.32L134.17 182.43L133.37 182.55L132.59 182.67L131.82 182.8L131.08 182.94L130.36 183.08L129.67 183.22L128.99 183.37L128.34 183.52L127.71 183.67L127.11 183.83L126.53 183.98L125.98 184.13L125.45 184.28L124.95 184.43L124.48 184.57L124.03 184.71L123.61 184.85L123.22 184.98L122.86 185.1L122.52 185.22L122.22 185.33L121.95 185.43L121.7 185.53L121.49 185.61L121.31 185.68L121.16 185.74L121.04 185.79L120.96 185.83L120.91 185.85L120.89 185.86L147.3 165.54L147.93 165.54L148.61 165.55ZM143.16 208.52L140.97 208.9L139.03 209.4L137.32 210.01L135.84 210.72L134.55 211.52L133.46 212.4L132.55 213.33L131.8 214.31L131.2 215.32L130.75 216.35L130.41 217.39L130.19 218.41L130.07 219.42L130.03 220.4L130.06 220.99L130.13 221.62L130.26 222.28L130.44 222.95L130.69 223.63L131 224.31L131.37 224.97L131.81 225.6L132.32 226.2L132.91 226.76L133.57 227.25L134.32 227.68L135.15 228.03L136.06 228.3L137.06 228.47L138.16 228.52L140.44 228.34L142.71 227.82L144.94 227L147.11 225.94L149.22 224.66L151.23 223.22L153.14 221.66L154.92 220.02L156.56 218.34L158.04 216.67L159.34 215.05L160.44 213.52L161.33 212.14L161.99 210.93L162.4 209.94L162.54 209.22L162.41 209.22L162.05 209.22L161.49 209.22L160.75 209.21L159.85 209.19L158.84 209.17L157.74 209.14L156.57 209.1L155.37 209.04L154.16 208.97L152.97 208.89L151.83 208.79L150.76 208.68L149.8 208.54L148.98 208.39L148.32 208.21L145.6 208.29L143.16 208.52Z"
      id="fekWEJAWu"></path>
    <path
      d="M172.7 243.76C172.7 243.76 178.79 245.79 196.06 245.79C201.14 245.79 226.54 246.81 226.54 219.38C226.54 193.98 202.16 199.06 202.16 188.9C202.16 183.83 206.22 181.79 213.33 181.79C216.38 181.79 227.56 182.81 227.56 182.81C227.86 180.98 230.3 166.35 230.6 164.52C230.6 164.52 223.49 162.49 211.3 162.49C196.06 162.49 190.98 168.59 190.98 188.9C190.98 212.27 206.22 210.24 206.22 219.38C206.22 225.48 199.11 226.49 194.03 226.49"
      id="e1idbTLp5N"></path>
    <path
      d="M586.16 245.79L587.17 238.68L587.16 238.7L587.12 238.74L587.06 238.81L586.96 238.91L586.85 239.03L586.7 239.18L586.53 239.34L586.34 239.53L586.12 239.73L585.87 239.95L585.6 240.19L585.31 240.44L584.99 240.7L584.65 240.97L584.28 241.25L583.89 241.54L583.48 241.84L583.04 242.14L582.58 242.44L582.1 242.75L581.59 243.05L581.06 243.35L580.51 243.65L579.93 243.95L579.34 244.24L578.72 244.52L578.08 244.79L577.42 245.05L576.74 245.3L576.03 245.54L575.31 245.76L574.56 245.96L573.8 246.15L573.01 246.32L572.2 246.46L571.38 246.58L570.53 246.68L569.66 246.75L568.78 246.79L567.87 246.81L566.61 246.78L565.42 246.68L564.3 246.53L563.25 246.31L562.26 246.04L561.33 245.71L560.47 245.32L559.66 244.88L558.9 244.39L558.21 243.86L557.56 243.27L556.97 242.64L556.42 241.96L555.92 241.25L555.46 240.49L555.05 239.69L554.68 238.86L554.34 237.98L554.04 237.08L553.78 236.14L553.55 235.18L553.34 234.18L553.17 233.16L553.03 232.11L552.9 231.04L552.8 229.94L552.72 228.83L552.66 227.69L552.62 226.55L552.59 225.38L552.57 224.2L552.56 223.01L552.56 221.81L552.57 220.61L552.58 219.39L552.6 218.17L552.61 216.95L552.62 215.73L552.63 214.51L552.63 213.29L552.65 211.31L552.68 209.36L552.74 207.42L552.82 205.5L552.93 203.61L553.07 201.74L553.23 199.89L553.42 198.07L553.63 196.28L553.87 194.52L554.14 192.8L554.45 191.11L554.78 189.45L555.14 187.83L555.53 186.25L555.95 184.71L556.41 183.22L556.89 181.76L557.41 180.36L557.97 179L558.56 177.69L559.18 176.43L559.84 175.23L560.53 174.08L561.27 172.99L562.03 171.95L562.84 170.98L563.69 170.06L564.57 169.21L565.49 168.43L566.46 167.71L567.46 167.06L568.5 166.48L569.59 165.97L570.72 165.54L571.89 165.18L573.1 164.89L574.36 164.69L575.67 164.57L577.02 164.52L577.85 164.54L578.67 164.6L579.48 164.69L580.27 164.81L581.05 164.96L581.82 165.14L582.58 165.35L583.31 165.58L584.04 165.84L584.75 166.11L585.44 166.41L586.11 166.72L586.77 167.05L587.41 167.39L588.03 167.74L588.64 168.1L589.22 168.47L589.79 168.84L590.33 169.22L590.86 169.6L591.36 169.98L591.84 170.36L592.3 170.74L592.74 171.11L593.16 171.47L593.55 171.82L593.92 172.16L594.26 172.49L594.58 172.8L594.87 173.1L595.14 173.37L595.38 173.63L595.6 173.86L595.79 174.07L595.95 174.25L596.08 174.4L596.18 174.52L596.26 174.61L596.3 174.66L596.32 174.68L621.71 148.27L606.48 245.79L586.16 245.79ZM577.73 184.05L576.6 184.33L575.5 184.73L574.44 185.22L573.41 185.83L572.42 186.53L571.47 187.34L570.57 188.25L569.71 189.25L568.9 190.35L568.13 191.54L567.42 192.83L566.77 194.2L566.18 195.66L565.64 197.21L565.17 198.83L564.77 200.54L564.43 202.33L564.16 204.2L563.97 206.14L563.85 208.15L563.81 210.24L563.83 211.54L563.9 212.79L564.01 214L564.17 215.16L564.38 216.27L564.62 217.32L564.91 218.33L565.24 219.28L565.62 220.18L566.03 221.02L566.49 221.8L566.98 222.53L567.52 223.2L568.1 223.81L568.71 224.37L569.37 224.86L570.06 225.28L570.79 225.65L571.56 225.95L572.36 226.19L573.2 226.36L574.07 226.46L574.98 226.49L576.43 226.41L577.85 226.18L579.24 225.8L580.59 225.29L581.91 224.65L583.19 223.9L584.42 223.03L585.61 222.06L586.74 220.99L587.82 219.85L588.85 218.62L589.81 217.33L590.7 215.98L591.53 214.58L592.28 213.14L592.96 211.66L593.56 210.16L594.08 208.64L594.51 207.11L594.85 205.59L595.1 204.07L595.25 202.57L595.3 201.1L595.26 199.55L595.12 198.08L594.91 196.68L594.61 195.37L594.24 194.13L593.8 192.97L593.3 191.88L592.74 190.87L592.12 189.93L591.44 189.06L590.73 188.26L589.96 187.53L589.16 186.87L588.33 186.28L587.47 185.75L586.58 185.29L585.67 184.9L584.75 184.57L583.82 184.3L582.88 184.09L581.94 183.94L581 183.85L580.06 183.83L578.88 183.88L577.73 184.05Z"
      id="b1NBdk6eGu"></path>
    <path
      d="M49.78 171.63L51.81 244.78L66.03 244.78L92.44 171.63L81.27 244.78L102.6 244.78L118.86 147.25L93.46 147.25L65.02 207.19L64 147.25L52.83 147.25L18.29 244.78L37.59 244.78L49.78 171.63Z"
      id="b4vc7NvoaQ"></path>
    <path
      d="M331.17 244.78C343.97 244.78 351.09 244.78 352.51 244.78C358.6 211.25 359.62 183.83 373.84 188.9C375.87 175.7 378.92 170.62 380.95 165.54C380.95 165.54 379.94 165.54 376.89 165.54C367.75 165.54 360.63 177.73 360.63 177.73C360.77 176.99 361.45 173.26 362.67 166.56"
      id="aa0WuKaNb"></path>
    <path
      d="M478.77 165.55L479.48 165.57L480.23 165.59L481.02 165.63L481.83 165.68L482.67 165.75L483.54 165.83L484.43 165.94L485.33 166.06L486.25 166.21L487.19 166.39L488.13 166.59L489.08 166.83L490.03 167.09L490.98 167.39L491.93 167.73L492.88 168.1L493.81 168.51L494.73 168.97L495.64 169.47L496.52 170.01L497.39 170.6L498.23 171.24L499.05 171.94L499.83 172.69L500.58 173.49L501.3 174.35L501.97 175.27L502.6 176.25L503.19 177.3L503.73 178.41L504.21 179.59L504.64 180.84L505.02 182.16L505.33 183.56L505.58 185.03L505.76 186.58L505.87 188.21L505.9 189.92L497.78 245.79L479.49 245.79L480.51 237.67L480.42 237.68L480.32 237.73L480.19 237.81L480.05 237.92L479.88 238.06L479.7 238.22L479.49 238.41L479.26 238.62L479.02 238.85L478.75 239.1L478.45 239.36L478.14 239.64L477.8 239.94L477.44 240.24L477.06 240.56L476.66 240.88L476.23 241.22L475.77 241.55L475.3 241.9L474.79 242.24L474.27 242.58L473.72 242.92L473.14 243.26L472.54 243.59L471.91 243.92L471.25 244.23L470.57 244.54L469.86 244.83L469.13 245.12L468.37 245.38L467.58 245.63L466.76 245.86L465.91 246.07L465.04 246.25L464.13 246.42L463.2 246.55L462.24 246.66L461.25 246.74L460.23 246.79L459.17 246.81L458.63 246.8L458.07 246.78L457.5 246.74L456.91 246.68L456.3 246.6L455.69 246.5L455.07 246.38L454.44 246.24L453.8 246.08L453.16 245.89L452.51 245.68L451.87 245.44L451.22 245.17L450.58 244.88L449.94 244.56L449.31 244.21L448.68 243.83L448.06 243.42L447.45 242.97L446.86 242.49L446.27 241.98L445.71 241.43L445.15 240.85L444.62 240.23L444.11 239.57L443.61 238.87L443.14 238.13L442.7 237.35L442.28 236.53L441.89 235.67L441.53 234.76L441.2 233.81L440.9 232.81L440.64 231.76L440.41 230.67L440.22 229.53L440.07 228.34L439.96 227.1L439.9 225.81L439.87 224.46L439.91 222.74L440.02 221.08L440.19 219.47L440.43 217.93L440.74 216.44L441.1 215.01L441.53 213.64L442.02 212.32L442.56 211.05L443.16 209.84L443.81 208.68L444.51 207.57L445.26 206.52L446.05 205.51L446.89 204.55L447.77 203.64L448.69 202.78L449.65 201.96L450.65 201.19L451.68 200.46L452.75 199.78L453.84 199.14L454.96 198.54L456.11 197.98L457.28 197.47L458.48 196.99L459.69 196.55L460.93 196.15L462.18 195.79L463.44 195.46L464.72 195.17L466.01 194.91L467.31 194.69L468.61 194.49L469.91 194.34L471.22 194.21L472.53 194.11L473.84 194.04L475.15 194L476.44 193.98L485.59 193.98L485.59 193.98L485.59 193.98L485.6 193.97L485.62 193.95L485.63 193.93L485.65 193.91L485.67 193.88L485.69 193.85L485.72 193.81L485.75 193.76L485.78 193.71L485.81 193.65L485.84 193.59L485.87 193.52L485.91 193.45L485.94 193.37L485.98 193.28L486.02 193.18L486.06 193.08L486.1 192.97L486.13 192.85L486.17 192.72L486.21 192.59L486.25 192.45L486.28 192.3L486.32 192.14L486.35 191.97L486.38 191.79L486.41 191.61L486.44 191.41L486.47 191.21L486.5 190.99L486.52 190.77L486.54 190.53L486.56 190.29L486.57 190.03L486.59 189.77L486.6 189.49L486.6 189.2L486.6 188.9L486.59 188.46L486.56 188.03L486.5 187.62L486.43 187.22L486.33 186.85L486.21 186.49L486.07 186.15L485.91 185.82L485.74 185.52L485.54 185.22L485.33 184.94L485.09 184.68L484.85 184.43L484.58 184.2L484.3 183.98L484 183.77L483.69 183.57L483.36 183.39L483.02 183.22L482.67 183.06L482.3 182.92L481.92 182.78L481.52 182.66L481.12 182.54L480.7 182.44L480.27 182.34L479.83 182.26L479.39 182.18L478.93 182.11L478.46 182.05L477.98 181.99L477.5 181.95L477.01 181.91L476.51 181.88L476.01 181.85L475.49 181.83L474.98 181.81L474.46 181.8L473.93 181.8L473.4 181.79L472.41 181.8L471.45 181.82L470.5 181.86L469.56 181.91L468.64 181.97L467.75 182.04L466.86 182.12L466 182.22L465.16 182.32L464.33 182.43L463.53 182.55L462.75 182.67L461.98 182.8L461.24 182.94L460.52 183.08L459.82 183.22L459.15 183.37L458.5 183.52L457.87 183.67L457.27 183.83L456.69 183.98L456.14 184.13L455.61 184.28L455.11 184.43L454.64 184.57L454.19 184.71L453.77 184.85L453.38 184.98L453.02 185.1L452.68 185.22L452.38 185.33L452.1 185.43L451.86 185.53L451.65 185.61L451.47 185.68L451.32 185.74L451.2 185.79L451.12 185.83L451.06 185.85L451.05 185.86L477.46 165.54L478.09 165.54L478.77 165.55ZM473.32 208.52L471.13 208.9L469.19 209.4L467.48 210.01L465.99 210.72L464.71 211.52L463.62 212.4L462.71 213.33L461.96 214.31L461.36 215.32L460.9 216.35L460.57 217.39L460.35 218.41L460.23 219.42L460.19 220.4L460.21 220.99L460.29 221.62L460.42 222.28L460.6 222.95L460.85 223.63L461.15 224.31L461.53 224.97L461.97 225.6L462.48 226.2L463.07 226.76L463.73 227.25L464.48 227.68L465.3 228.03L466.22 228.3L467.22 228.47L468.32 228.52L470.6 228.34L472.87 227.82L475.09 227L477.27 225.94L479.37 224.66L481.39 223.22L483.3 221.66L485.08 220.02L486.72 218.34L488.2 216.67L489.5 215.05L490.6 213.52L491.49 212.14L492.15 210.93L492.56 209.94L492.7 209.22L492.58 209.22L492.25 209.22L491.73 209.22L491.05 209.21L490.22 209.19L489.27 209.17L488.23 209.14L487.11 209.1L485.95 209.04L484.76 208.97L483.58 208.89L482.41 208.79L481.3 208.68L480.25 208.54L479.31 208.39L478.48 208.21L475.76 208.29L473.32 208.52Z"
      id="fvnh1pgOU"></path>
    <path
      d="M501.84 244.78C514.64 244.78 521.75 244.78 523.17 244.78C529.27 211.25 530.29 183.83 544.51 188.9C546.54 175.7 549.59 170.62 551.62 165.54C551.62 165.54 550.6 165.54 547.56 165.54C538.41 165.54 531.3 177.73 531.3 177.73C531.44 176.99 532.11 173.26 533.33 166.56"
      id="c1zPQF3fPa"></path>
  </defs>
  <g>
    <g>
      <g>
        <use xlink:href="#hr03W23IS" opacity="1" fill="#ffb600" fill-opacity="1"></use>
        <g>
          <use xlink:href="#hr03W23IS" opacity="1" fill-opacity="0" stroke="#000000" stroke-width="1"
               stroke-opacity="0"></use>
        </g>
      </g>
      <g>
        <use xlink:href="#c2edfyx1ZE" opacity="1" fill="#f7981d" fill-opacity="1"></use>
        <g>
          <use xlink:href="#c2edfyx1ZE" opacity="1" fill-opacity="0" stroke="#000000" stroke-width="1"
               stroke-opacity="0"></use>
        </g>
      </g>
      <g>
        <use xlink:href="#axFlADhuN" opacity="1" fill="#ff8500" fill-opacity="1"></use>
        <g>
          <use xlink:href="#axFlADhuN" opacity="1" fill-opacity="0" stroke="#000000" stroke-width="1"
               stroke-opacity="0"></use>
        </g>
      </g>
      <g>
        <use xlink:href="#d3DA8ySwaw" opacity="1" fill="#ff5050" fill-opacity="1"></use>
        <g>
          <use xlink:href="#d3DA8ySwaw" opacity="1" fill-opacity="0" stroke="#000000" stroke-width="1"
               stroke-opacity="0"></use>
        </g>
      </g>
      <g>
        <use xlink:href="#c1WTVWZNf8" opacity="1" fill="#e52836" fill-opacity="1"></use>
        <g>
          <use xlink:href="#c1WTVWZNf8" opacity="1" fill-opacity="0" stroke="#000000" stroke-width="1"
               stroke-opacity="0"></use>
        </g>
      </g>
      <g>
        <use xlink:href="#e2O7GIUDHe" opacity="1" fill="#cb2026" fill-opacity="1"></use>
        <g>
          <use xlink:href="#e2O7GIUDHe" opacity="1" fill-opacity="0" stroke="#000000" stroke-width="1"
               stroke-opacity="0"></use>
        </g>
      </g>
      <g>
        <use xlink:href="#d4D7WfcnPq" opacity="1" fill="#ffffff" fill-opacity="1"></use>
        <g>
          <use xlink:href="#d4D7WfcnPq" opacity="1" fill-opacity="0" stroke="#000000" stroke-width="1"
               stroke-opacity="0"></use>
        </g>
      </g>
      <g>
        <use xlink:href="#a4Yzq5ZmS7" opacity="1" fill="#ffffff" fill-opacity="1"></use>
        <g>
          <use xlink:href="#a4Yzq5ZmS7" opacity="1" fill-opacity="0" stroke="#000000" stroke-width="1"
               stroke-opacity="0"></use>
        </g>
      </g>
      <g>
        <use xlink:href="#a1DcU8kRiS" opacity="1" fill="#ffffff" fill-opacity="1"></use>
        <g>
          <use xlink:href="#a1DcU8kRiS" opacity="1" fill-opacity="0" stroke="#000000" stroke-width="1"
               stroke-opacity="0"></use>
        </g>
      </g>
      <g>
        <use xlink:href="#b1aELiHxPh" opacity="1" fill="#ffffff" fill-opacity="1"></use>
        <g>
          <use xlink:href="#b1aELiHxPh" opacity="1" fill-opacity="0" stroke="#000000" stroke-width="1"
               stroke-opacity="0"></use>
        </g>
      </g>
      <g>
        <use xlink:href="#c9mFqSQF" opacity="1" fill="#ffffff" fill-opacity="1"></use>
        <g>
          <use xlink:href="#c9mFqSQF" opacity="1" fill-opacity="0" stroke="#000000" stroke-width="1"
               stroke-opacity="0"></use>
        </g>
      </g>
      <g>
        <use xlink:href="#faP5qkSgW" opacity="1" fill="#ffffff" fill-opacity="1"></use>
        <g>
          <use xlink:href="#faP5qkSgW" opacity="1" fill-opacity="0" stroke="#000000" stroke-width="1"
               stroke-opacity="0"></use>
        </g>
      </g>
      <g>
        <use xlink:href="#c3cufeCsjT" opacity="1" fill="#ffffff" fill-opacity="1"></use>
        <g>
          <use xlink:href="#c3cufeCsjT" opacity="1" fill-opacity="0" stroke="#000000" stroke-width="1"
               stroke-opacity="0"></use>
        </g>
      </g>
      <g>
        <use xlink:href="#d9HkjdS0S" opacity="1" fill="#ffffff" fill-opacity="1"></use>
        <g>
          <use xlink:href="#d9HkjdS0S" opacity="1" fill-opacity="0" stroke="#000000" stroke-width="1"
               stroke-opacity="0"></use>
        </g>
      </g>
      <g>
        <use xlink:href="#bBfJzIHTP" opacity="1" fill="#ffffff" fill-opacity="1"></use>
        <g>
          <use xlink:href="#bBfJzIHTP" opacity="1" fill-opacity="0" stroke="#000000" stroke-width="1"
               stroke-opacity="0"></use>
        </g>
      </g>
      <g>
        <use xlink:href="#a7MYBEs7T" opacity="1" fill="#ffffff" fill-opacity="1"></use>
        <g>
          <use xlink:href="#a7MYBEs7T" opacity="1" fill-opacity="0" stroke="#000000" stroke-width="1"
               stroke-opacity="0"></use>
        </g>
      </g>
      <g>
        <use xlink:href="#bjJ0nj2ze" opacity="1" fill="#dce5e5" fill-opacity="1"></use>
        <g>
          <use xlink:href="#bjJ0nj2ze" opacity="1" fill-opacity="0" stroke="#000000" stroke-width="1"
               stroke-opacity="0"></use>
        </g>
      </g>
      <g>
        <use xlink:href="#a1f69EnT4C" opacity="1" fill="#dce5e5" fill-opacity="1"></use>
        <g>
          <use xlink:href="#a1f69EnT4C" opacity="1" fill-opacity="0" stroke="#000000" stroke-width="1"
               stroke-opacity="0"></use>
        </g>
      </g>
      <g>
        <use xlink:href="#eaIBllUNp" opacity="1" fill="#dce5e5" fill-opacity="1"></use>
        <g>
          <use xlink:href="#eaIBllUNp" opacity="1" fill-opacity="0" stroke="#000000" stroke-width="1"
               stroke-opacity="0"></use>
        </g>
      </g>
      <g>
        <use xlink:href="#fekWEJAWu" opacity="1" fill="#dce5e5" fill-opacity="1"></use>
        <g>
          <use xlink:href="#fekWEJAWu" opacity="1" fill-opacity="0" stroke="#000000" stroke-width="1"
               stroke-opacity="0"></use>
        </g>
      </g>
      <g>
        <use xlink:href="#e1idbTLp5N" opacity="1" fill="#dce5e5" fill-opacity="1"></use>
        <g>
          <use xlink:href="#e1idbTLp5N" opacity="1" fill-opacity="0" stroke="#000000" stroke-width="1"
               stroke-opacity="0"></use>
        </g>
      </g>
      <g>
        <use xlink:href="#b1NBdk6eGu" opacity="1" fill="#dce5e5" fill-opacity="1"></use>
        <g>
          <use xlink:href="#b1NBdk6eGu" opacity="1" fill-opacity="0" stroke="#000000" stroke-width="1"
               stroke-opacity="0"></use>
        </g>
      </g>
      <g>
        <use xlink:href="#b4vc7NvoaQ" opacity="1" fill="#dce5e5" fill-opacity="1"></use>
        <g>
          <use xlink:href="#b4vc7NvoaQ" opacity="1" fill-opacity="0" stroke="#000000" stroke-width="1"
               stroke-opacity="0"></use>
        </g>
      </g>
      <g>
        <use xlink:href="#aa0WuKaNb" opacity="1" fill="#dce5e5" fill-opacity="1"></use>
        <g>
          <use xlink:href="#aa0WuKaNb" opacity="1" fill-opacity="0" stroke="#000000" stroke-width="1"
               stroke-opacity="0"></use>
        </g>
      </g>
      <g>
        <use xlink:href="#fvnh1pgOU" opacity="1" fill="#dce5e5" fill-opacity="1"></use>
        <g>
          <use xlink:href="#fvnh1pgOU" opacity="1" fill-opacity="0" stroke="#000000" stroke-width="1"
               stroke-opacity="0"></use>
        </g>
      </g>
      <g>
        <use xlink:href="#c1zPQF3fPa" opacity="1" fill="#dce5e5" fill-opacity="1"></use>
        <g>
          <use xlink:href="#c1zPQF3fPa" opacity="1" fill-opacity="0" stroke="#000000" stroke-width="1"
               stroke-opacity="0"></use>
        </g>
      </g>
    </g>
  </g>
  </symbol>
</svg>
