<svg xmlns="http://www.w3.org/2000/svg" xmlns:xlink="http://www.w3.org/1999/xlink" version="1.1" viewBox="0 0 192 192" width="50px" height="50px">
  <symbol id="qiwi">
    <g fill="none" fill-rule="nonzero" stroke="none" stroke-width="1" stroke-linecap="butt" stroke-linejoin="miter" stroke-miterlimit="10" stroke-dasharray="" stroke-dashoffset="0" font-family="none" font-weight="none" font-size="none" text-anchor="none" style="mix-blend-mode: normal">
      <path d="M0,192v-192h192v192z" fill="none"/>
      <g fill="#e67e22">
        <path d="M90.24,0c-47.64288,0 -86.4,38.75712 -86.4,86.4c0,47.64288 38.75712,86.4 86.4,86.4c9.9648,0 17.03268,-1.13526 23.265,-2.1375c5.44512,-0.87552 10.5846,-1.7025 17.055,-1.7025c31.3536,0 50.68434,21.51612 50.8725,21.735c0.75264,0.85248 1.81614,1.2975 2.8875,1.2975c0.71424,0 1.4364,-0.19278 2.07,-0.6075c1.59744,-1.02528 2.20434,-3.06066 1.4325,-4.7925c-0.4224,-0.95232 -10.85472,-23.45436 -52.68,-33.135l-1.14,-0.315c-10.33728,-2.55744 -18.68538,-6.72234 -24.8025,-12.3825c-7.90272,-7.30368 -9.41232,-14.67642 -9.42,-14.7225c-0.35328,-1.95456 -2.18196,-3.30762 -4.125,-3.1425c-1.98144,0.18048 -3.495,1.83588 -3.495,3.825c0,0.39168 0.02502,8.02848 1.3575,15.24c-1.14432,0.08064 -2.22918,0.12 -3.2775,0.12c-30.7008,0 -55.68,-24.9792 -55.68,-55.68c0,-30.7008 24.9792,-55.68 55.68,-55.68c30.7008,0 55.68,24.9792 55.68,55.68c0,2.28864 -0.14316,4.6035 -0.435,6.9075c-7.24224,-1.14432 -14.445,-1.1475 -14.925,-1.1475c-2.23488,0 -3.84,1.9182 -3.84,3.915c0.04608,2.08512 1.74738,3.76116 3.8325,3.765c0.0768,0 8.06742,0.07602 15.2175,4.6725c11.85408,7.61856 14.69196,19.12266 14.715,19.2225c0.35712,1.58208 1.6722,2.763 3.285,2.955c1.60128,0.16512 3.17058,-0.65214 3.8925,-2.1075c5.95584,-12.0384 8.9775,-24.88842 8.9775,-38.1825c0,-47.64288 -38.75712,-86.4 -86.4,-86.4zM148.3575,122.8875c-0.94104,-0.05742 -1.6743,0.3519 -2.0775,1.0575c-0.81408,1.42464 -0.20718,4.2474 1.4325,6.705c1.66272,2.48832 3.07122,3.75 4.1925,3.75c1.02912,0 2.05884,-1.28826 1.575,-4.4025c-0.288,-1.85856 -1.3719,-5.89794 -4.1175,-6.8925c-0.3552,-0.12864 -0.69132,-0.19836 -1.005,-0.2175zM135.81,134.4c-1.72416,0 -3.1593,0.4485 -4.0425,1.3125c-2.2656,2.21952 -1.24752,6.11982 2.22,8.5275c1.5168,1.04832 3.69612,1.68 5.835,1.68c2.17728,0 3.99738,-0.65112 5.1225,-1.83c2.016,-2.1504 0.85812,-5.19372 -2.955,-7.755c-1.88928,-1.2672 -4.0872,-1.935 -6.18,-1.935z"/>
      </g>
    </g>
  </symbol>
</svg>
