<?xml version="1.0" encoding="UTF-8" standalone="no"?>
<!DOCTYPE svg PUBLIC "-//W3C//DTD SVG 1.1//EN" "http://www.w3.org/Graphics/SVG/1.1/DTD/svg11.dtd">
<svg version="1.1" xmlns="http://www.w3.org/2000/svg" xmlns:xlink="http://www.w3.org/1999/xlink" preserveAspectRatio="xMidYMid meet" viewBox="0 0 640 195" width="640" height="195">
  <symbol id="visa">
    <defs><path d="M267.17 4.52L317.97 4.52L286.48 187.38L234.67 187.38L267.17 4.52Z" id="asEOeaXhT"></path><path d="M276.32 4.52L317.97 4.52L286.48 187.38L234.67 187.38L276.32 4.52Z" id="e2zK9XJ6ay"></path><path d="M423.62 -1.58C372.83 -1.58 336.25 23.82 336.25 60.39C336.25 87.82 361.65 102.04 381.97 111.18C402.29 120.33 408.38 126.42 408.38 134.55C408.38 146.74 392.13 152.84 377.9 152.84C357.59 152.84 346.41 149.79 329.14 142.68C328.67 142.47 326.3 141.46 322.03 139.63C317.77 164.62 315.39 178.5 314.92 181.28C327.11 186.36 349.46 191.44 372.83 191.44C426.67 191.44 462.22 166.04 462.22 127.44C462.22 106.11 449.02 89.85 418.54 76.64C400.25 67.5 389.08 62.42 389.08 53.28C389.08 45.15 398.22 37.03 418.54 37.03C435.81 37.03 448 40.07 457.14 44.14C457.48 44.27 459.17 44.95 462.22 46.17L470.35 6.55L470.35 6.55C452.74 1.13 437.16 -1.58 423.62 -1.58Z" id="a3KthDITgx"></path><path d="M423.62 -1.58C372.83 -1.58 345.4 23.82 345.4 60.39C345.4 87.82 361.65 102.04 381.97 111.18C402.29 120.33 408.38 126.42 408.38 134.55C408.38 146.74 392.13 152.84 377.9 152.84C357.59 152.84 346.41 149.79 329.14 142.68C328.67 142.47 326.3 141.46 322.03 139.63C317.77 164.62 315.39 178.5 314.92 181.28C327.11 186.36 349.46 191.44 372.83 191.44C426.67 191.44 462.22 166.04 462.22 127.44C462.22 106.11 449.02 89.85 418.54 76.64C400.25 67.5 389.08 62.42 389.08 53.28C389.08 45.15 398.22 37.03 418.54 37.03C435.81 37.03 448 40.07 457.14 44.14C457.48 44.27 459.17 44.95 462.22 46.17L470.35 6.55L470.35 6.55C452.74 1.13 437.16 -1.58 423.62 -1.58Z" id="aoU4LgEEd"></path><path d="M591.24 187.38L585.14 156.9L520.13 156.9L509.97 187.38L455.11 187.38L531.3 17.72L531.57 17.12L531.85 16.53L532.15 15.96L532.48 15.4L532.83 14.85L533.19 14.32L533.58 13.8L533.98 13.3L534.41 12.8L534.86 12.33L535.32 11.86L535.81 11.42L536.32 10.98L536.85 10.56L537.4 10.15L537.97 9.76L538.55 9.38L539.16 9.02L539.79 8.66L540.44 8.33L541.11 8L541.81 7.7L542.52 7.4L543.25 7.12L544 6.85L544.77 6.6L545.56 6.36L546.38 6.13L547.21 5.92L548.06 5.72L548.94 5.54L549.83 5.37L550.75 5.22L551.68 5.07L552.63 4.95L553.61 4.83L554.61 4.73L555.62 4.65L556.66 4.58L557.71 4.52L597.33 4.52L640 187.38L591.24 187.38ZM561.3 55.42L561.06 56L560.81 56.6L560.57 57.2L560.32 57.81L560.07 58.43L559.82 59.05L559.57 59.68L559.32 60.31L559.07 60.94L558.82 61.57L558.58 62.2L558.34 62.82L558.1 63.44L557.86 64.05L557.63 64.65L557.41 65.24L557.19 65.82L556.97 66.39L556.76 66.94L556.56 67.47L556.37 67.99L556.18 68.49L556 68.97L555.83 69.42L555.67 69.85L555.52 70.26L555.38 70.63L555.25 70.98L555.14 71.3L555.03 71.59L554.94 71.84L554.86 72.06L554.79 72.25L554.74 72.39L554.7 72.5L554.67 72.58L534.35 126.42L534.35 127.44L577.02 127.44L576.84 126.59L576.64 125.61L576.41 124.5L576.15 123.28L575.87 121.95L575.57 120.52L575.24 119L574.9 117.4L574.54 115.72L574.16 113.98L573.77 112.18L573.36 110.33L572.95 108.44L572.53 106.51L572.11 104.56L571.67 102.59L571.24 100.62L570.81 98.64L570.37 96.67L569.94 94.72L569.52 92.79L569.1 90.89L568.69 89.04L568.29 87.23L567.91 85.48L567.53 83.79L567.18 82.18L566.84 80.65L566.52 79.21L566.22 77.87L565.95 76.63L565.7 75.51L565.48 74.52L565.29 73.65L565.13 72.92L565 72.34L564.9 71.92L564.85 71.65L564.83 71.57L561.78 54.3L561.54 54.85L561.3 55.42Z" id="c4WvaqJTwj"></path><path d="M591.24 187.38L585.14 156.9L520.13 156.9L509.97 187.38L455.11 187.38L543.49 17.72L543.76 17.12L544.04 16.53L544.35 15.96L544.67 15.4L545.02 14.85L545.38 14.32L545.77 13.8L546.17 13.3L546.6 12.8L547.05 12.33L547.51 11.86L548 11.42L548.51 10.98L549.04 10.56L549.59 10.15L550.16 9.76L550.75 9.38L551.35 9.02L551.98 8.66L552.63 8.33L553.31 8L554 7.7L554.71 7.4L555.44 7.12L556.19 6.85L556.96 6.6L557.75 6.36L558.57 6.13L559.4 5.92L560.25 5.72L561.13 5.54L562.02 5.37L562.94 5.22L563.87 5.07L564.83 4.95L565.8 4.83L566.8 4.73L567.81 4.65L568.85 4.58L569.9 4.52L597.33 4.52L640 187.38L591.24 187.38ZM561.3 55.42L561.06 56L560.81 56.6L560.57 57.2L560.32 57.81L560.07 58.43L559.82 59.05L559.57 59.68L559.32 60.31L559.07 60.94L558.82 61.57L558.58 62.2L558.34 62.82L558.1 63.44L557.86 64.05L557.63 64.65L557.41 65.24L557.19 65.82L556.97 66.39L556.76 66.94L556.56 67.47L556.37 67.99L556.18 68.49L556 68.97L555.83 69.42L555.67 69.85L555.52 70.26L555.38 70.63L555.25 70.98L555.14 71.3L555.03 71.59L554.94 71.84L554.86 72.06L554.79 72.25L554.74 72.39L554.7 72.5L554.67 72.58L534.35 126.42L534.35 127.44L577.02 127.44L576.84 126.59L576.64 125.61L576.41 124.5L576.15 123.28L575.87 121.95L575.57 120.52L575.24 119L574.9 117.4L574.54 115.72L574.16 113.98L573.77 112.18L573.36 110.33L572.95 108.44L572.53 106.51L572.11 104.56L571.67 102.59L571.24 100.62L570.81 98.64L570.37 96.67L569.94 94.72L569.52 92.79L569.1 90.89L568.69 89.04L568.29 87.23L567.91 85.48L567.53 83.79L567.18 82.18L566.84 80.65L566.52 79.21L566.22 77.87L565.95 76.63L565.7 75.51L565.48 74.52L565.29 73.65L565.13 72.92L565 72.34L564.9 71.92L564.85 71.65L564.83 71.57L561.78 54.3L561.54 54.85L561.3 55.42Z" id="bnB0Os8kQ"></path><path d="M136.13 106.11C126.98 75.63 97.52 42.11 65.02 25.85C68.06 36.69 83.3 90.87 110.73 188.39L165.59 188.39L247.87 5.53L193.02 5.53L141.21 132.52C138.16 116.67 136.47 107.87 136.13 106.11Z" id="b9yKKclj"></path><path d="M136.13 106.11C126.98 75.63 97.52 42.11 65.02 25.85C68.06 36.69 83.3 90.87 110.73 188.39L165.59 188.39L247.87 5.53L203.17 5.53L141.21 132.52C138.16 116.67 136.47 107.87 136.13 106.11Z" id="d4COyf3Pgg"></path><path d="M9.14 6.55C74.16 21.79 118.86 60.39 136.13 106.11C134.3 97.47 119.67 28.39 117.84 19.76C114.79 7.57 105.65 4.52 94.48 4.52C88.18 4.52 56.69 4.52 0 4.52C5.49 5.74 8.53 6.41 9.14 6.55Z" id="a70dok2eJ"></path><path d="M0 4.52C65.02 19.76 118.86 59.38 136.13 105.09C134.4 97.88 120.58 40.18 118.86 32.96C115.81 20.77 105.65 13.66 94.48 13.66C88.18 13.05 56.69 10 0 4.52C0 4.52 0 4.52 0 4.52Z" id="ain5qfqrp"></path><path d="M0 4.52C65.02 19.76 118.86 59.38 136.13 105.09C134.91 101.13 125.16 69.43 123.94 65.47C120.89 53.28 116.83 41.09 102.6 36.01C95.76 33.91 61.56 23.41 0 4.52C0 4.52 0 4.52 0 4.52Z" id="c22YRAoLaF"></path><path d="M157.46 91.88L141.21 130.49C138.77 115.25 137.41 106.78 137.14 105.09C128 74.61 98.54 41.09 66.03 24.84C69.08 35.67 84.32 89.85 111.75 187.38L166.6 187.38L192 126.42L157.46 91.88Z" id="aiJaTSlfY"></path><path d="M242.79 142.68L234.67 187.38L286.48 187.38L242.79 142.68Z" id="h3hwg97sa4"></path><path d="M403.3 124.39C407.37 128.45 409.4 131.5 408.38 135.57C408.38 147.76 392.13 153.85 377.9 153.85C357.59 153.85 346.41 150.8 329.14 143.69C328.67 143.49 326.3 142.47 322.03 140.64C317.77 165.64 315.39 179.52 314.92 182.3C327.11 187.38 349.46 192.45 372.83 192.45C405.33 192.45 431.75 183.31 446.98 167.06C444.07 164.21 429.51 149.99 403.3 124.39C403.3 124.39 403.3 124.39 403.3 124.39Z" id="f1NPllnWB7"></path><path d="M462.22 187.38L509.97 187.38L520.13 156.9L585.14 156.9L591.24 187.38L640 187.38L622.73 113.22L561.78 54.3C563.61 64.05 564.62 69.47 564.83 70.55C564.83 70.55 574.98 116.26 577.02 126.42C572.75 126.42 538.62 126.42 534.35 126.42C538.41 116.26 554.67 72.58 554.67 72.58C554.67 72.58 558.73 61.41 561.78 54.3" id="i8hIkJFau"></path></defs><g><g><g><use xlink:href="#asEOeaXhT" opacity="1" fill="#3c58bf" fill-opacity="1"></use><g><use xlink:href="#asEOeaXhT" opacity="1" fill-opacity="0" stroke="#000000" stroke-width="1" stroke-opacity="0"></use></g></g><g><use xlink:href="#e2zK9XJ6ay" opacity="1" fill="#293688" fill-opacity="1"></use><g><use xlink:href="#e2zK9XJ6ay" opacity="1" fill-opacity="0" stroke="#000000" stroke-width="1" stroke-opacity="0"></use></g></g><g><use xlink:href="#a3KthDITgx" opacity="1" fill="#3c58bf" fill-opacity="1"></use><g><use xlink:href="#a3KthDITgx" opacity="1" fill-opacity="0" stroke="#000000" stroke-width="1" stroke-opacity="0"></use></g></g><g><use xlink:href="#aoU4LgEEd" opacity="1" fill="#293688" fill-opacity="1"></use><g><use xlink:href="#aoU4LgEEd" opacity="1" fill-opacity="0" stroke="#000000" stroke-width="1" stroke-opacity="0"></use></g></g><g><use xlink:href="#c4WvaqJTwj" opacity="1" fill="#3c58bf" fill-opacity="1"></use><g><use xlink:href="#c4WvaqJTwj" opacity="1" fill-opacity="0" stroke="#000000" stroke-width="1" stroke-opacity="0"></use></g></g><g><use xlink:href="#bnB0Os8kQ" opacity="1" fill="#293688" fill-opacity="1"></use><g><use xlink:href="#bnB0Os8kQ" opacity="1" fill-opacity="0" stroke="#000000" stroke-width="1" stroke-opacity="0"></use></g></g><g><use xlink:href="#b9yKKclj" opacity="1" fill="#3c58bf" fill-opacity="1"></use><g><use xlink:href="#b9yKKclj" opacity="1" fill-opacity="0" stroke="#000000" stroke-width="1" stroke-opacity="0"></use></g></g><g><use xlink:href="#d4COyf3Pgg" opacity="1" fill="#293688" fill-opacity="1"></use><g><use xlink:href="#d4COyf3Pgg" opacity="1" fill-opacity="0" stroke="#000000" stroke-width="1" stroke-opacity="0"></use></g></g><g><use xlink:href="#a70dok2eJ" opacity="1" fill="#ffbc00" fill-opacity="1"></use><g><use xlink:href="#a70dok2eJ" opacity="1" fill-opacity="0" stroke="#000000" stroke-width="1" stroke-opacity="0"></use></g></g><g><use xlink:href="#ain5qfqrp" opacity="1" fill="#f7981d" fill-opacity="1"></use><g><use xlink:href="#ain5qfqrp" opacity="1" fill-opacity="0" stroke="#000000" stroke-width="1" stroke-opacity="0"></use></g></g><g><use xlink:href="#c22YRAoLaF" opacity="1" fill="#ed7c00" fill-opacity="1"></use><g><use xlink:href="#c22YRAoLaF" opacity="1" fill-opacity="0" stroke="#000000" stroke-width="1" stroke-opacity="0"></use></g></g><g><use xlink:href="#aiJaTSlfY" opacity="1" fill="#051244" fill-opacity="1"></use><g><use xlink:href="#aiJaTSlfY" opacity="1" fill-opacity="0" stroke="#000000" stroke-width="1" stroke-opacity="0"></use></g></g><g><use xlink:href="#h3hwg97sa4" opacity="1" fill="#051244" fill-opacity="1"></use><g><use xlink:href="#h3hwg97sa4" opacity="1" fill-opacity="0" stroke="#000000" stroke-width="1" stroke-opacity="0"></use></g></g><g><use xlink:href="#f1NPllnWB7" opacity="1" fill="#051244" fill-opacity="1"></use><g><use xlink:href="#f1NPllnWB7" opacity="1" fill-opacity="0" stroke="#000000" stroke-width="1" stroke-opacity="0"></use></g></g><g><use xlink:href="#i8hIkJFau" opacity="1" fill="#051244" fill-opacity="1"></use><g><use xlink:href="#i8hIkJFau" opacity="1" fill-opacity="0" stroke="#000000" stroke-width="1" stroke-opacity="0"></use></g></g></g></g></symbol>
</svg>
