<?xml version="1.0"?>
<svg xmlns="http://www.w3.org/2000/svg" xmlns:xlink="http://www.w3.org/1999/xlink" version="1.1" viewBox="0 0 192 192"
     width="50px" height="50px">
  <symbol id="webmoney">
    <g fill="none" fill-rule="nonzero" stroke="none" stroke-width="1" stroke-linecap="butt" stroke-linejoin="miter"
       stroke-miterlimit="10" stroke-dasharray="" stroke-dashoffset="0" font-family="none" font-weight="none"
       font-size="none" text-anchor="none" style="mix-blend-mode: normal">
      <path d="M0,192v-192h192v192z" fill="none"/>
      <g id="original-icon" fill="#2d66ab">
        <path
          d="M93.6525,7.8075c-24.77299,0.54551 -50.6127,11.4273 -68.5575,35.5425c-29.05344,39.06048 -21.3891,93.07578 17.4525,122.9625c16.4928,12.6912 35.29524,18.135 53.205,18.135c19.59552,0 38.0595,-6.5748 51.3075,-17.25l0.18,0.21l5.7675,-5.07l-19.545,-22.2525l-8.145,7.4625c-4.30464,3.92448 -8.45148,7.70874 -12.495,11.6025c-6.53568,-7.46112 -13.16484,-14.84934 -19.785,-22.2375c-3.19104,-3.55968 -6.37914,-7.1238 -9.5625,-10.695c-0.18432,-0.20352 -0.3597,-0.41496 -0.5325,-0.63l9.33,-8.7225l-24.0225,-27.1275l9.405,-8.8125l-24.4125,-27.18l33.2325,-30.0225l12.27,13.275l20.3325,-18.0525c0.1728,0.05376 0.3372,0.11124 0.51,0.165l11.6325,12.7425l10.875,-9.9525c0,0 -2.87724,-2.67096 -5.715,-4.23c-0.43392,-0.23808 -0.8385,-0.30384 -1.2225,-0.3c-12.16224,-6.49296 -26.64121,-9.88981 -41.505,-9.5625zM148.485,27.8325l-9.7125,8.8875l8.76,9.72l9.75,-8.7675zM118.9275,30.4575l-15.0225,13.65l13.515,15.015l15,-13.545zM85.5225,35.985l-20.2575,18.3525l18.2775,20.3325l20.3025,-18.33zM161.88,59.2725l-9.6825,8.82l8.8275,9.765l9.7575,-8.85zM133.455,62.355l-15,13.5975l13.5075,15.075l15.0375,-13.5975zM100.5975,72.045l-20.265,18.3975l18.315,20.3325l20.205,-18.375zM175.38,90.69l-9.735,8.76l8.835,9.765l9.7575,-8.7825zM146.955,95.8725l-15,13.56l13.5225,15.0975l15.015,-13.6275zM115.5675,108.5925l-20.2575,18.3225l18.2325,20.385l20.3325,-18.3525zM160.7775,127.89l-14.94,13.62l13.5375,14.985l15.045,-13.56z"/>
      </g>
    </g>
  </symbol>
</svg>
